<svg id="Layer_1" data-name="Layer 1" xmlns="http://www.w3.org/2000/svg" xmlns:xlink="http://www.w3.org/1999/xlink" viewBox="0 0 226.86 24">
  <defs>
    <style>
      .cls-1 {
        fill: none;
      }

      .cls-2 {
        clip-path: url(#clip-path);
      }

      .cls-3 {
        fill: #589bce;
      }

      .cls-4 {
        fill: #683386;
      }

      .cls-5 {
        clip-path: url(#clip-path-3);
      }

      .cls-6 {
        fill: #dc9627;
      }

      .cls-7 {
        fill: #ad1920;
      }

      .cls-8 {
        fill: #b1d049;
      }

      .cls-9 {
        fill: #dfbc44;
      }
    </style>
    <clipPath id="clip-path" transform="translate(-0.97 0)">
      <rect class="cls-1" x="25.44" y="3.75" width="202.39" height="16.69"/>
    </clipPath>
    <clipPath id="clip-path-3" transform="translate(-0.97 0)">
      <rect class="cls-1" x="0.97" width="24.03" height="24"/>
    </clipPath>
  </defs>
  <g id="Artwork_3" data-name="Artwork 3">
    <g class="cls-2">
      <polygon class="cls-3" points="24.47 4.03 24.47 7.07 29.64 7.07 29.64 20.17 33.37 20.17 33.37 7.07 38.53 7.07 38.53 4.03 24.47 4.03"/>
      <polygon class="cls-3" points="40.54 4.03 40.54 20.17 53.04 20.17 53.04 17.17 44.25 17.17 44.25 13.43 51.75 13.43 51.75 10.53 44.25 10.53 44.25 7.02 52.74 7.02 52.74 4.03 40.54 4.03"/>
      <g class="cls-2">
        <path class="cls-3" d="M57,4h7.33A10.3,10.3,0,0,1,69,5,7.61,7.61,0,0,1,72.1,7.85a8,8,0,0,1,1.11,4.25,8,8,0,0,1-1.11,4.24A7.61,7.61,0,0,1,69,19.16a10.3,10.3,0,0,1-4.65,1H57ZM64.13,17.1A5.42,5.42,0,0,0,68,15.75a4.77,4.77,0,0,0,1.44-3.65A4.78,4.78,0,0,0,68,8.44a5.42,5.42,0,0,0-3.86-1.35H60.72v10Z" transform="translate(-0.97 0)"/>
        <polygon class="cls-3" points="78.79 7.02 78.79 11.29 86.26 11.29 86.26 14.29 78.79 14.29 78.79 20.17 75.06 20.17 75.06 4.03 87.25 4.03 87.25 7.02 78.79 7.02"/>
        <path class="cls-3" d="M93.88,19.36a8.09,8.09,0,0,1-4.3-7.26,8.09,8.09,0,0,1,4.3-7.27,9.47,9.47,0,0,1,4.53-1.08,9.35,9.35,0,0,1,4.52,1.08,8.19,8.19,0,0,1,3.16,3,8.08,8.08,0,0,1,1.16,4.28,8.11,8.11,0,0,1-4.32,7.26,9.35,9.35,0,0,1-4.52,1.08,9.47,9.47,0,0,1-4.53-1.08M101,16.6a4.62,4.62,0,0,0,1.81-1.83,5.33,5.33,0,0,0,.65-2.67,5.4,5.4,0,0,0-.65-2.68A4.75,4.75,0,0,0,101,7.59a5.39,5.39,0,0,0-5.17,0A4.75,4.75,0,0,0,94,9.42a5.4,5.4,0,0,0-.65,2.68A5.33,5.33,0,0,0,94,14.77a4.62,4.62,0,0,0,1.81,1.83,5.39,5.39,0,0,0,5.17,0" transform="translate(-0.97 0)"/>
        <path class="cls-3" d="M120.34,20.17l-3.11-4.5h-3.44v4.5h-3.73V4h7a9.13,9.13,0,0,1,3.73.71,5.55,5.55,0,0,1,2.43,2,5.58,5.58,0,0,1,.85,3.11,5.42,5.42,0,0,1-.86,3.1,5.51,5.51,0,0,1-2.46,2l3.62,5.19ZM119.4,7.8a3.91,3.91,0,0,0-2.56-.73h-3V12.7h3A3.91,3.91,0,0,0,119.4,12a2.58,2.58,0,0,0,.87-2.08,2.55,2.55,0,0,0-.87-2.08" transform="translate(-0.97 0)"/>
        <path class="cls-3" d="M127,4h7.34A10.25,10.25,0,0,1,139,5a7.55,7.55,0,0,1,3.14,2.82,8,8,0,0,1,1.12,4.25,8,8,0,0,1-1.12,4.24A7.55,7.55,0,0,1,139,19.16a10.25,10.25,0,0,1-4.64,1H127Zm7.15,13.07A5.4,5.4,0,0,0,138,15.75a4.77,4.77,0,0,0,1.45-3.65A4.78,4.78,0,0,0,138,8.44a5.4,5.4,0,0,0-3.86-1.35h-3.41v10Z" transform="translate(-0.97 0)"/>
        <polygon class="cls-4" points="160.25 20.17 160.21 11.61 156.06 18.57 154.03 18.57 149.9 11.84 149.9 20.17 145.68 20.17 145.68 4.03 149.44 4.03 155.11 13.34 160.65 4.03 164.4 4.03 164.45 20.17 160.25 20.17"/>
        <polygon class="cls-4" points="180.64 16.64 180.64 20.17 167.68 20.17 167.68 4.03 180.34 4.03 180.34 7.55 172.2 7.55 172.2 10.28 179.37 10.28 179.37 13.69 172.2 13.69 172.2 16.64 180.64 16.64"/>
        <path class="cls-4" d="M184.14,4h7.63a10.72,10.72,0,0,1,4.71,1,7.45,7.45,0,0,1,3.18,2.81,8,8,0,0,1,1.13,4.27,7.92,7.92,0,0,1-1.13,4.26,7.47,7.47,0,0,1-3.18,2.82,10.72,10.72,0,0,1-4.71,1h-7.63Zm7.45,12.49a4.7,4.7,0,0,0,3.33-1.17,4.24,4.24,0,0,0,1.26-3.25,4.21,4.21,0,0,0-1.26-3.25,4.66,4.66,0,0,0-3.33-1.18h-2.88v8.85Z" transform="translate(-0.97 0)"/>
        <rect class="cls-4" x="202.22" y="4.03" width="4.57" height="16.14"/>
        <path class="cls-4" d="M221.82,17H215l-1.27,3.14h-4.65L216.19,4h4.5l7.14,16.14h-4.75Zm-1.34-3.37L218.4,8.5l-2.07,5.16Z" transform="translate(-0.97 0)"/>
      </g>
    </g>
  </g>
  <g id="Artwork_2" data-name="Artwork 2">
    <g class="cls-5">
      <g class="cls-5">
        <path class="cls-3" d="M22.49,6.51l1-.36A12,12,0,0,0,13.9,0V1.05a11,11,0,0,1,8.59,5.46" transform="translate(-0.97 0)"/>
        <path class="cls-6" d="M13.9,22.91V24a12,12,0,0,0,9.57-6.09l-.87-.61a11,11,0,0,1-8.7,5.65" transform="translate(-0.97 0)"/>
        <path class="cls-7" d="M2.38,14.8l-1,.36A12,12,0,0,0,13,24V23A11,11,0,0,1,2.38,14.8" transform="translate(-0.97 0)"/>
        <path class="cls-8" d="M24,12A10.91,10.91,0,0,1,23,16.44l.88.61A12.09,12.09,0,0,0,25,12a12,12,0,0,0-1.09-5l-1,.36A10.81,10.81,0,0,1,24,12" transform="translate(-0.97 0)"/>
        <path class="cls-4" d="M2,12A10.93,10.93,0,0,1,4.74,4.75l-.87-.6A12,12,0,0,0,1,12a12.35,12.35,0,0,0,.22,2.29l1-.37A11,11,0,0,1,2,12" transform="translate(-0.97 0)"/>
        <path class="cls-8" d="M22.7,12a9.67,9.67,0,0,1-2.14,6.08l.67.8a10.86,10.86,0,0,0,2.42-8.15h-1A8.93,8.93,0,0,1,22.7,12" transform="translate(-0.97 0)"/>
        <path class="cls-3" d="M22.45,9.8H23.5a10.78,10.78,0,0,0-7.29-8.06l-.27,1A9.76,9.76,0,0,1,22.45,9.8" transform="translate(-0.97 0)"/>
        <path class="cls-6" d="M13,21.7a9.45,9.45,0,0,1-2.07-.23l-.27,1a10.62,10.62,0,0,0,2.34.26,10.73,10.73,0,0,0,7.62-3.18l-.67-.79a9.69,9.69,0,0,1-7,2.95" transform="translate(-0.97 0)"/>
        <path class="cls-4" d="M7.53,4l-.66-.78A10.76,10.76,0,0,0,2.47,9.8h1A9.79,9.79,0,0,1,7.53,4" transform="translate(-0.97 0)"/>
        <path class="cls-7" d="M3.27,12a8.93,8.93,0,0,1,.09-1.27h-1A10.7,10.7,0,0,0,9.77,22.23l.27-1A9.75,9.75,0,0,1,3.27,12" transform="translate(-0.97 0)"/>
        <path class="cls-7" d="M12.72,14.88l-8-4.55A8.1,8.1,0,0,0,4.51,12a8.44,8.44,0,0,0,2.6,6.1Z" transform="translate(-0.97 0)"/>
        <path class="cls-4" d="M10.35,13.25V3.93a8.47,8.47,0,0,0-5.62,6.14Z" transform="translate(-0.97 0)"/>
        <path class="cls-6" d="M15.38,13.65,7.29,18.26a8.53,8.53,0,0,0,8.09,1.85Z" transform="translate(-0.97 0)"/>
        <path class="cls-3" d="M10.6,10.32l8.06-4.63A8.43,8.43,0,0,0,13,3.51a8.52,8.52,0,0,0-2.39.34Z" transform="translate(-0.97 0)"/>
        <path class="cls-9" d="M15.63,10.73V20a8.53,8.53,0,0,0,5.62-6.13Z" transform="translate(-0.97 0)"/>
        <path class="cls-8" d="M13.24,9.08l8,4.58a8.46,8.46,0,0,0-2.44-7.8Z" transform="translate(-0.97 0)"/>
      </g>
    </g>
  </g>
</svg>
