<?xml version="1.0" encoding="utf-8"?>
<!-- Generator: Adobe Illustrator 25.2.2, SVG Export Plug-In . SVG Version: 6.00 Build 0)  -->
<svg version="1.1" id="Layer_1" xmlns="http://www.w3.org/2000/svg" xmlns:xlink="http://www.w3.org/1999/xlink" x="0px" y="0px"
	 viewBox="0 0 170.4 24" style="enable-background:new 0 0 170.4 24;" xml:space="preserve">
<style type="text/css">
	.st0{display:none;}
	.st1{display:inline;}
	.st2{fill:#111111;}
	.st3{fill:#E32110;}
	.st4{clip-path:url(#SVGID_2_);}
	.st5{clip-path:url(#SVGID_4_);fill:#589BCE;}
	.st6{clip-path:url(#SVGID_4_);fill:#DC9627;}
	.st7{clip-path:url(#SVGID_4_);fill:#AD1920;}
	.st8{clip-path:url(#SVGID_4_);fill:#B1D049;}
	.st9{clip-path:url(#SVGID_4_);fill:#683386;}
	.st10{clip-path:url(#SVGID_4_);fill:#DFBC44;}
	.st11{clip-path:url(#SVGID_6_);}
	.st12{fill:#589BCD;}
	.st13{font-family:'OpenSans-Bold';}
	.st14{font-size:17.0114px;}
	.st15{fill:#683386;}
</style>
<g transform="translate(-209.59 -130.99)" class="st0">
	<g class="st1">
		<path class="st2" d="M216.4,132.9c1.2,0,2.1,0.1,2.7,0.4c0.6,0.2,1.2,0.5,1.6,0.8c0.2,0.1,0.4,0.3,0.6,0.3
			c0.2,0.1,0.3,0.1,0.4,0.1c0.3,0,0.5-0.4,0.7-1.3h0.7c0,0.4-0.1,0.8-0.1,1.4c0,0.5,0,1.2-0.1,2.1c0,0.9,0,2,0,3.4h-0.7
			c-0.1-1-0.3-2-0.7-3c-0.4-1-1-1.8-1.7-2.4c-0.7-0.6-1.6-1-2.7-1c-1,0-1.8,0.3-2.4,0.8c-0.6,0.5-0.9,1.3-0.9,2.2
			c0,0.8,0.2,1.5,0.6,2.1c0.4,0.6,1,1.1,1.7,1.7c0.8,0.5,1.7,1.2,2.8,1.9c1,0.6,1.8,1.2,2.6,1.9c0.8,0.6,1.4,1.3,1.8,2.1
			c0.5,0.8,0.7,1.7,0.7,2.8c0,1.3-0.4,2.4-1.1,3.3c-0.7,0.9-1.6,1.5-2.7,1.9c-1.1,0.4-2.4,0.6-3.7,0.6c-1.2,0-2.2-0.1-3-0.4
			c-0.7-0.2-1.4-0.5-1.9-0.8c-0.4-0.3-0.8-0.4-1-0.4c-0.3,0-0.5,0.4-0.7,1.3h-0.7c0-0.5,0.1-1,0.1-1.7c0-0.6,0-1.5,0-2.5
			c0-1,0-2.3,0-3.9h0.7c0.1,1.3,0.3,2.6,0.7,3.7c0.4,1.1,1,2.1,1.7,2.8c0.8,0.7,1.8,1.1,3.1,1.1c1,0,1.9-0.3,2.6-0.8
			c0.7-0.6,1.1-1.4,1.1-2.5c0-1.2-0.4-2.3-1.3-3.1c-0.8-0.8-1.9-1.7-3.2-2.5c-0.9-0.6-1.8-1.2-2.6-1.9c-0.8-0.6-1.5-1.3-2-2.1
			c-0.5-0.8-0.7-1.7-0.7-2.8c0-1.3,0.3-2.3,0.9-3.1c0.6-0.8,1.5-1.4,2.5-1.8C214.2,133.1,215.3,132.9,216.4,132.9L216.4,132.9z"/>
		<path class="st2" d="M232.3,134.1v4.9h3.5v0.6h-3.5v12.1c0,0.6,0.1,1,0.3,1.3c0.2,0.2,0.6,0.4,1,0.4c0.4,0,0.7-0.1,1.1-0.4
			c0.4-0.3,0.7-0.8,1-1.4l0.5,0.3c-0.3,0.9-0.8,1.6-1.5,2.2c-0.6,0.6-1.5,0.9-2.6,0.9c-0.7,0-1.2-0.1-1.7-0.3
			c-0.5-0.2-0.9-0.4-1.3-0.8c-0.4-0.4-0.7-1-0.9-1.6c-0.1-0.7-0.2-1.5-0.2-2.6v-10.1h-2.5v-0.6h2.5v-4c0.8,0,1.6-0.1,2.3-0.2
			C231,134.7,231.6,134.5,232.3,134.1L232.3,134.1z"/>
		<path class="st2" d="M244.3,138.6c1.8,0,3.1,0.5,4.1,1.6c1,1,1.5,2.7,1.5,5.1h-9.9l-0.1-0.6h6.2c0-1,0-1.9-0.2-2.7
			c-0.1-0.8-0.4-1.5-0.7-2c-0.3-0.5-0.7-0.8-1.2-0.8c-0.7,0-1.3,0.4-1.8,1.3c-0.5,0.9-0.8,2.3-0.9,4.4l0.1,0.2c0,0.2,0,0.5-0.1,0.8
			c0,0.3,0,0.5,0,0.8c0,1.4,0.2,2.5,0.6,3.4c0.4,0.9,0.9,1.5,1.5,1.9c0.6,0.4,1.2,0.6,1.8,0.6c0.6,0,1.3-0.1,2-0.4
			c0.7-0.3,1.4-1,2-2l0.5,0.2c-0.2,0.8-0.6,1.5-1.1,2.2c-0.5,0.7-1.2,1.3-2,1.8c-0.8,0.5-1.8,0.7-2.9,0.7c-1.4,0-2.6-0.3-3.6-0.9
			c-1-0.6-1.9-1.5-2.5-2.6c-0.6-1.2-0.9-2.7-0.9-4.5c0-1.9,0.3-3.4,0.9-4.6c0.6-1.2,1.5-2.2,2.6-2.8
			C241.7,139,242.9,138.6,244.3,138.6L244.3,138.6z"/>
		<path class="st2" d="M259.6,131.1c0.7,0,1.3,0.1,1.8,0.3c0.5,0.2,1,0.4,1.4,0.7c0.3,0.2,0.5,0.5,0.7,0.9c0.2,0.4,0.3,0.8,0.3,1.3
			c0,0.5-0.2,1-0.6,1.4c-0.4,0.4-0.9,0.6-1.5,0.6c-0.7,0-1.2-0.2-1.7-0.6c-0.4-0.4-0.6-0.9-0.6-1.6c0-0.5,0.1-1,0.5-1.4
			c0.3-0.4,0.7-0.7,1.3-0.8c-0.1-0.1-0.2-0.2-0.4-0.3c-0.2-0.1-0.4-0.1-0.7-0.1c-0.4,0-0.7,0.1-1,0.2c-0.3,0.1-0.5,0.3-0.6,0.6
			c-0.2,0.3-0.4,0.7-0.4,1.3c-0.1,0.6-0.1,1.4-0.1,2.6v2.7h3.2v0.6H258v11.8c0,1,0.2,1.6,0.8,2c0.5,0.3,1.2,0.5,2.1,0.5v0.6
			c-0.5,0-1.2,0-2.2-0.1c-0.9,0-1.9-0.1-3-0.1c-0.8,0-1.5,0-2.2,0.1c-0.7,0-1.3,0-1.6,0.1v-0.6c0.7,0,1.2-0.2,1.5-0.5
			c0.3-0.3,0.5-0.9,0.5-1.7v-12.1h-2v-0.6h2c0-1.8,0.1-3.1,0.4-4.1c0.3-0.9,0.8-1.8,1.5-2.4c0.4-0.4,1-0.8,1.7-1.1
			C258,131.3,258.8,131.1,259.6,131.1L259.6,131.1z"/>
		<path class="st2" d="M266.3,154.8c-1.3,0-2.3-0.4-2.9-1.1c-0.6-0.7-0.9-1.5-0.9-2.5c0-0.9,0.2-1.6,0.6-2.1c0.4-0.5,0.9-1,1.5-1.3
			c0.6-0.4,1.3-0.7,2-0.9c0.7-0.2,1.4-0.5,2-0.7c0.6-0.2,1.1-0.5,1.5-0.8c0.4-0.3,0.6-0.7,0.6-1.1v-2.3c0-0.5-0.1-1-0.3-1.4
			c-0.2-0.4-0.4-0.7-0.8-1c-0.3-0.2-0.8-0.3-1.4-0.3c-0.4,0-0.8,0.1-1.2,0.2c-0.4,0.1-0.7,0.3-1,0.5c0.6,0.2,1,0.5,1.3,0.9
			c0.3,0.4,0.5,0.9,0.5,1.4c0,0.7-0.2,1.2-0.7,1.6c-0.5,0.4-1,0.6-1.6,0.6c-0.7,0-1.3-0.2-1.7-0.7c-0.4-0.5-0.5-1-0.5-1.6
			c0-0.6,0.1-1.1,0.4-1.4c0.3-0.4,0.7-0.7,1.2-1.1c0.6-0.3,1.2-0.6,2-0.8c0.8-0.2,1.7-0.3,2.6-0.3c0.9,0,1.7,0.1,2.5,0.3
			c0.7,0.2,1.4,0.5,1.9,1c0.5,0.5,0.8,1,0.9,1.7c0.1,0.7,0.2,1.5,0.2,2.5v8.2c0,0.5,0,0.8,0.1,1c0.1,0.2,0.3,0.3,0.5,0.3
			c0.2,0,0.4-0.1,0.6-0.1c0.2-0.1,0.3-0.2,0.5-0.4l0.3,0.5c-0.4,0.4-0.9,0.6-1.5,0.8c-0.5,0.2-1.1,0.3-1.8,0.3c-1.2,0-2-0.2-2.4-0.7
			c-0.4-0.5-0.6-1.1-0.6-1.7c-0.5,0.8-1.1,1.4-1.9,1.8C268.1,154.6,267.2,154.8,266.3,154.8L266.3,154.8z M268.6,152.9
			c0.4,0,0.7-0.1,1-0.3c0.3-0.2,0.7-0.5,1-1v-6.2c-0.2,0.4-0.6,0.7-1,1c-0.4,0.3-0.9,0.6-1.3,0.9c-0.4,0.3-0.8,0.7-1.1,1.2
			c-0.3,0.5-0.5,1.1-0.5,1.9c0,0.9,0.2,1.5,0.5,1.9C267.6,152.7,268,152.9,268.6,152.9L268.6,152.9z"/>
		<path class="st2" d="M289,138.6c0.8,0,1.5,0.1,2,0.3c0.5,0.2,1,0.5,1.3,0.8c0.3,0.4,0.5,0.9,0.7,1.5c0.2,0.6,0.2,1.4,0.2,2.4v8.1
			c0,0.8,0.1,1.4,0.4,1.7c0.3,0.3,0.8,0.4,1.5,0.4v0.6c-0.4,0-1,0-1.7-0.1c-0.8,0-1.5-0.1-2.2-0.1c-0.8,0-1.5,0-2.2,0.1
			c-0.7,0-1.3,0-1.7,0.1v-0.6c0.6,0,1-0.1,1.3-0.4c0.2-0.3,0.4-0.9,0.4-1.7v-9.3c0-0.5,0-0.9-0.1-1.3c-0.1-0.4-0.3-0.7-0.5-0.9
			c-0.3-0.2-0.6-0.3-1.2-0.3c-0.8,0-1.6,0.3-2.1,1c-0.6,0.7-0.8,1.5-0.8,2.5v8.3c0,0.8,0.1,1.4,0.4,1.7c0.3,0.3,0.7,0.5,1.3,0.5v0.6
			c-0.4,0-0.9,0-1.6-0.1c-0.7,0-1.4-0.1-2.1-0.1c-0.8,0-1.5,0-2.3,0.1c-0.8,0-1.4,0-1.8,0.1v-0.6c0.7,0,1.2-0.2,1.5-0.5
			c0.3-0.3,0.5-0.9,0.5-1.7v-9.5c0-0.9-0.1-1.6-0.4-2c-0.3-0.4-0.8-0.7-1.5-0.7v-0.6c0.6,0.1,1.3,0.1,1.9,0.1c0.8,0,1.6,0,2.3-0.1
			c0.7-0.1,1.4-0.2,2-0.3v2.7c0.5-1,1.2-1.7,2-2.2C287,138.9,287.9,138.6,289,138.6L289,138.6z"/>
		<path class="st2" d="M312.8,133.3c3.9,0,6.9,0.9,8.8,2.7c1.9,1.8,2.9,4.3,2.9,7.7c0,2.2-0.5,4.1-1.4,5.7c-0.9,1.6-2.3,2.9-4.1,3.8
			c-1.8,0.9-3.9,1.4-6.4,1.4c-0.5,0-1.2,0-2.1,0c-0.9,0-1.6-0.1-2.3-0.1c-0.9,0-1.7,0-2.6,0c-0.8,0-1.5,0-2,0.1V154
			c0.6,0,1.1-0.1,1.4-0.2c0.3-0.1,0.5-0.4,0.6-0.7c0.1-0.4,0.2-0.9,0.2-1.6v-14.9c0-0.7-0.1-1.3-0.2-1.6c-0.1-0.4-0.3-0.6-0.7-0.7
			c-0.3-0.1-0.8-0.2-1.4-0.2v-0.6c0.5,0,1.2,0.1,2,0.1c0.9,0,1.7,0,2.6,0c0.7,0,1.5,0,2.4-0.1C311.4,133.4,312.2,133.3,312.8,133.3
			L312.8,133.3z M312.8,133.9c-0.9,0-1.5,0.2-1.8,0.5c-0.3,0.3-0.4,1-0.4,2.1v15c0,1,0.1,1.7,0.4,2.1c0.3,0.3,0.9,0.5,1.8,0.5
			c1.7,0,3-0.4,4-1.2c1-0.8,1.7-2,2.1-3.5c0.4-1.5,0.6-3.4,0.6-5.5c0-3.4-0.5-5.9-1.6-7.5C316.9,134.7,315.2,133.9,312.8,133.9
			L312.8,133.9z"/>
		<path class="st2" d="M334.3,138.6c1.8,0,3.1,0.5,4.1,1.6c1,1,1.5,2.7,1.5,5.1H330l-0.1-0.6h6.2c0-1,0-1.9-0.2-2.7
			c-0.1-0.8-0.4-1.5-0.7-2c-0.3-0.5-0.7-0.8-1.2-0.8c-0.7,0-1.3,0.4-1.8,1.3c-0.5,0.9-0.8,2.3-0.9,4.4l0.1,0.2c0,0.2,0,0.5-0.1,0.8
			c0,0.3,0,0.5,0,0.8c0,1.4,0.2,2.5,0.6,3.4c0.4,0.9,0.9,1.5,1.5,1.9c0.6,0.4,1.2,0.6,1.8,0.6c0.6,0,1.3-0.1,1.9-0.4
			c0.7-0.3,1.4-1,2-2l0.5,0.2c-0.2,0.8-0.6,1.5-1.1,2.2c-0.5,0.7-1.2,1.3-2,1.8c-0.8,0.5-1.8,0.7-2.9,0.7c-1.4,0-2.6-0.3-3.6-0.9
			c-1-0.6-1.9-1.5-2.5-2.6c-0.6-1.2-0.9-2.7-0.9-4.5c0-1.9,0.3-3.4,0.9-4.6c0.6-1.2,1.5-2.2,2.6-2.8
			C331.6,139,332.8,138.6,334.3,138.6L334.3,138.6z"/>
		<path class="st2" d="M355.8,139.1v0.6c-0.4,0.1-0.7,0.3-1.1,0.7c-0.3,0.4-0.7,1-1,1.9l-4.4,12.4c-0.3,0-0.7,0-1,0
			c-0.3,0-0.6,0-1,0l-5.3-13.3c-0.3-0.8-0.6-1.2-1-1.4c-0.3-0.2-0.6-0.3-0.8-0.3v-0.6c0.6,0,1.3,0.1,2,0.1c0.7,0,1.5,0,2.3,0
			c0.6,0,1.3,0,1.9,0c0.7,0,1.4-0.1,2-0.1v0.6c-0.4,0-0.8,0-1.1,0.1c-0.3,0-0.5,0.2-0.7,0.4c-0.1,0.2-0.1,0.6,0.1,1.2l3.5,9.3
			L350,151l2.4-6.6c0.6-1.6,0.6-2.8,0.3-3.5c-0.4-0.8-1-1.2-2-1.3v-0.6c0.5,0,1,0,1.5,0.1c0.5,0,1,0,1.4,0s0.8,0,1.3,0
			C355.2,139.1,355.6,139.1,355.8,139.1L355.8,139.1z"/>
		<path class="st2" d="M360.2,154.8c-1.3,0-2.3-0.4-2.9-1.1c-0.6-0.7-0.9-1.5-0.9-2.5c0-0.9,0.2-1.6,0.6-2.1c0.4-0.5,0.9-1,1.5-1.3
			c0.6-0.4,1.3-0.7,2-0.9c0.7-0.2,1.4-0.5,2-0.7c0.6-0.2,1.2-0.5,1.5-0.8c0.4-0.3,0.6-0.7,0.6-1.1v-2.3c0-0.5-0.1-1-0.3-1.4
			c-0.2-0.4-0.4-0.7-0.8-1c-0.3-0.2-0.8-0.3-1.4-0.3c-0.4,0-0.8,0.1-1.2,0.2c-0.4,0.1-0.7,0.3-1,0.5c0.6,0.2,1,0.5,1.3,0.9
			c0.3,0.4,0.5,0.9,0.5,1.4c0,0.7-0.2,1.2-0.7,1.6c-0.5,0.4-1,0.6-1.7,0.6c-0.7,0-1.3-0.2-1.7-0.7c-0.4-0.5-0.5-1-0.5-1.6
			c0-0.6,0.1-1.1,0.4-1.4c0.3-0.4,0.7-0.7,1.2-1.1c0.6-0.3,1.2-0.6,2-0.8c0.8-0.2,1.7-0.3,2.6-0.3c0.9,0,1.7,0.1,2.5,0.3
			c0.7,0.2,1.4,0.5,1.9,1c0.5,0.5,0.8,1,0.9,1.7c0.1,0.7,0.2,1.5,0.2,2.5v8.2c0,0.5,0,0.8,0.1,1c0.1,0.2,0.3,0.3,0.5,0.3
			c0.2,0,0.4-0.1,0.6-0.1c0.2-0.1,0.4-0.2,0.5-0.4l0.3,0.5c-0.4,0.4-0.9,0.6-1.5,0.8c-0.5,0.2-1.1,0.3-1.8,0.3c-1.2,0-2-0.2-2.4-0.7
			c-0.4-0.5-0.6-1.1-0.6-1.7c-0.5,0.8-1.1,1.4-1.9,1.8C362,154.6,361.2,154.8,360.2,154.8L360.2,154.8z M362.5,152.9
			c0.4,0,0.7-0.1,1.1-0.3c0.3-0.2,0.7-0.5,1-1v-6.2c-0.2,0.4-0.6,0.7-1,1c-0.4,0.3-0.9,0.6-1.3,0.9c-0.4,0.3-0.8,0.7-1.1,1.2
			c-0.3,0.5-0.5,1.1-0.5,1.9c0,0.9,0.2,1.5,0.5,1.9C361.5,152.7,362,152.9,362.5,152.9L362.5,152.9z"/>
		<path class="st2" d="M378,138.7v13.1c0,0.8,0.1,1.4,0.4,1.7c0.3,0.3,0.8,0.4,1.5,0.4v0.6c-0.4,0-0.9,0-1.7-0.1
			c-0.8,0-1.5-0.1-2.3-0.1c-0.8,0-1.6,0-2.4,0.1c-0.8,0-1.4,0-1.8,0.1v-0.6c0.7,0,1.2-0.1,1.5-0.4c0.3-0.3,0.4-0.9,0.4-1.7v-9.5
			c0-0.9-0.1-1.6-0.4-2c-0.3-0.4-0.8-0.7-1.5-0.7v-0.6c0.6,0.1,1.3,0.1,1.9,0.1c0.8,0,1.6,0,2.3-0.1
			C376.7,139,377.4,138.9,378,138.7L378,138.7z"/>
	</g>
	<g class="st1">
		
			<rect x="373.3" y="131.9" transform="matrix(0.7071 -0.7071 0.7071 0.7071 15.1296 304.8838)" class="st3" width="4.5" height="4.5"/>
	</g>
</g>
<g id="Artwork_65_1_">
	<g>
		<defs>
			<rect id="SVGID_1_" x="34" y="-5" width="112" height="35.8"/>
		</defs>
		<clipPath id="SVGID_2_">
			<use xlink:href="#SVGID_1_"  style="overflow:visible;"/>
		</clipPath>
		<g class="st4">
			<defs>
				<rect id="SVGID_3_" x="34" y="-4" width="30.6" height="30.6"/>
			</defs>
			<clipPath id="SVGID_4_">
				<use xlink:href="#SVGID_3_"  style="overflow:visible;"/>
			</clipPath>
			<path class="st5" d="M61.4,4.3l1.3-0.5c-2.4-4.4-7-7.4-12.2-7.8v1.3C55.2-2.3,59.2,0.4,61.4,4.3"/>
			<path class="st6" d="M50.5,25.1v1.3c5.2-0.4,9.7-3.4,12.2-7.8l-1.1-0.8C59.4,21.9,55.3,24.7,50.5,25.1"/>
			<path class="st7" d="M35.8,14.8l-1.3,0.5c1.8,6.5,7.7,11.3,14.8,11.3v-1.3C42.9,25.2,37.4,20.8,35.8,14.8"/>
			<path class="st8" d="M63.3,11.2c0,2-0.4,3.9-1.2,5.7l1.1,0.8c0.9-2,1.4-4.1,1.4-6.5c0-2.3-0.5-4.4-1.4-6.4L62,5.3
				C62.8,7.1,63.3,9.1,63.3,11.2"/>
			<path class="st9" d="M35.4,11.2c0-3.5,1.3-6.7,3.5-9.2l-1.1-0.8c-2.3,2.7-3.7,6.2-3.7,10c0,1,0.1,2,0.3,2.9l1.3-0.5
				C35.4,12.9,35.4,12.1,35.4,11.2"/>
			<path class="st8" d="M61.7,11.2c0,2.9-1,5.6-2.7,7.7l0.9,1c2-2.4,3.2-5.4,3.2-8.8c0-0.5,0-1.1-0.1-1.6h-1.3
				C61.7,10.1,61.7,10.7,61.7,11.2"/>
			<path class="st5" d="M61.4,8.4h1.3c-1-4.9-4.6-8.8-9.3-10.3l-0.3,1.3C57.2,0.8,60.4,4.2,61.4,8.4"/>
			<path class="st6" d="M49.3,23.6c-0.9,0-1.8-0.1-2.6-0.3l-0.3,1.3c1,0.2,2,0.3,3,0.3c3.8,0,7.2-1.6,9.7-4.1l-0.8-1
				C56,22.1,52.8,23.6,49.3,23.6"/>
			<path class="st9" d="M42.4,1l-0.8-1c-2.8,2-4.9,5-5.6,8.5h1.3C38,5.4,39.9,2.7,42.4,1"/>
			<path class="st7" d="M37,11.2c0-0.5,0-1.1,0.1-1.6h-1.3c-0.1,0.5-0.1,1.1-0.1,1.6c0,6.1,4,11.3,9.6,13l0.3-1.3
				C40.6,21.4,37,16.7,37,11.2"/>
			<path class="st7" d="M49,14.9L38.8,9.1c-0.1,0.7-0.2,1.4-0.2,2.1c0,3.1,1.3,5.8,3.3,7.8L49,14.9z"/>
			<path class="st9" d="M46,12.8V1c-3.6,1.2-6.3,4.1-7.2,7.8L46,12.8z"/>
			<path class="st6" d="M52.4,13.3l-10.3,5.9c1.9,1.7,4.5,2.8,7.2,2.8c1.1,0,2.1-0.2,3-0.4L52.4,13.3z"/>
			<path class="st5" d="M46.3,9.1l10.3-5.9c-1.9-1.7-4.4-2.8-7.2-2.8c-1.1,0-2.1,0.2-3,0.4V9.1z"/>
			<path class="st10" d="M52.7,9.6l0,11.9c3.6-1.2,6.3-4.1,7.1-7.8L52.7,9.6z"/>
			<path class="st8" d="M49.7,7.5l10.3,5.8c0.1-0.7,0.2-1.4,0.2-2.1c0-3.1-1.3-5.8-3.3-7.8L49.7,7.5z"/>
		</g>
		<g class="st4">
			<defs>
				<rect id="SVGID_5_" x="34" y="-5" width="112" height="35.8"/>
			</defs>
			<clipPath id="SVGID_6_">
				<use xlink:href="#SVGID_5_"  style="overflow:visible;"/>
			</clipPath>
			<g class="st11">
				<text transform="matrix(1 0 0 1 65.4731 9.5547)" class="st12 st13 st14">TEDFORD</text>
			</g>
			<g class="st11">
				<text transform="matrix(1 0 0 1 65.4731 25.75)" class="st15 st13 st14">MEDIA</text>
			</g>
		</g>
	</g>
</g>
</svg>
